<svg
    xmlns="http://www.w3.org/2000/svg"
    viewBox="0 0 5.5 5.5"
    width="550"
    height="550">
  <style>
    .filled {
      fill: #47e054;
    }
  </style>

  <path
      d="M1,5.5 A1,1 0 0 1 2,4.5 L2,5.5 Z"
      class="filled"/>
  <!-- Viertelkreissegment links oben -->
  <!--  <path d="M2,5 A3,3 0 0 1 0,3 L0,5 Z" class="filled"/>-->

  <!-- Viertelkreissegment rechts oben -->
  <!--  <path d="M5,5 A3,3 0 0 1 3,3 L3,5 Z" class="filled"/>-->

  <!-- Quadrate -->
  <rect
      x="0"
      y="3"
      width="1"
      height="1"
      class="filled"/>
  <rect
      x="1"
      y="2"
      width="1"
      height="1"
      class="filled"/>
  <rect
      x="0"
      y="1"
      width="1"
      height="1"
      class="filled"/>
  <rect
      x="1"
      y="0"
      width="1"
      height="1"
      class="filled"/>

  <rect
      x="2.5"
      y="3"
      width="1"
      height="1"
      class="filled"/>
  <rect
      x="3.5"
      y="2"
      width="1"
      height="1"
      class="filled"/>
  <rect
      x="2.5"
      y="1"
      width="1"
      height="1"
      class="filled"/>
  <rect
      x="3.5"
      y="0"
      width="1"
      height="1"
      class="filled"/>

</svg>
